HIERARCHY
ROOT Hips
{
	OFFSET	0.00	0.00	0.00
	CHANNELS 6 Xposition Yposition Zposition Zrotation Xrotation Yrotation
	JOINT Spine
	{
		OFFSET	 0.00	0.01	 0.00
		CHANNELS 3 Zrotation Xrotation Yrotation
		JOINT Spine1
		{
			OFFSET	 0.00	 2.45913012437421	 0.00
			CHANNELS 3 Zrotation Xrotation Yrotation
            JOINT Neck
            {
                OFFSET	 0.00	 2.48462964506057	 0.00
                CHANNELS 3 Zrotation Xrotation Yrotation
                JOINT Head
                {
                    OFFSET	 0.00	 0.927524780924562	 0.00
                    CHANNELS 3 Zrotation Xrotation Yrotation
                    End Site 
                    {
                        OFFSET	 0.00	 1.14999962169752	 0.00
                    }
                }
            }
			JOINT LeftShoulder
			{
				OFFSET	 0.00	 2.48462964506057	 0.00
				CHANNELS 3 Zrotation Xrotation Yrotation
				JOINT LeftUpArm
				{
					OFFSET	 0.00	 1.24881979654096	 0.00
					CHANNELS 3 Zrotation Xrotation Yrotation
					JOINT LeftForeArm
					{
						OFFSET	 0.00	2.59758046908119	 0.00
						CHANNELS 3 Zrotation Xrotation Yrotation
						JOINT LeftHand
						{
							OFFSET	 0.00	2.45542024364365	 0.00
							CHANNELS 3 Zrotation Xrotation Yrotation
							JOINT LeftHandThumb 
							{
								OFFSET	 0.00	0.00	 0.00
								CHANNELS 3 Zrotation Xrotation Yrotation
								End Site
								{
									OFFSET	 0.00	0.00	1.00000003353624
								}
							}
							JOINT L_Wrist_End 
							{
								OFFSET	 0.00	0.99999967115358	 0.00
								CHANNELS 3 Zrotation Xrotation Yrotation
								End Site 
								{
									OFFSET	 0.00	 0.00	 0.00
								}
							}
						}
					}
				}
			}
			JOINT RightShoulder
			{
				OFFSET	 0.00	 2.48462964506057	 0.00
				CHANNELS 3 Zrotation Xrotation Yrotation
				JOINT RightUpArm
				{
					OFFSET	 0.00	 1.24881979654096	 0.00
					CHANNELS 3 Zrotation Xrotation Yrotation
					JOINT RightForeArm
					{
						OFFSET	 0.00	2.59758046908119	 0.00
						CHANNELS 3 Zrotation Xrotation Yrotation
						JOINT RightHand
						{
							OFFSET	 0.00	2.45542024364365	 0.00
							CHANNELS 3 Zrotation Xrotation Yrotation
							JOINT RightHandThumb 
							{
								OFFSET	 0.00	0.00	 0.00
								CHANNELS 3 Zrotation Xrotation Yrotation
								End Site
								{
									OFFSET	 0.00	0.00	1.00000003353624
								}
							}
							JOINT R_Wrist_End 
							{
								OFFSET	 0.00	0.99999967115358	 0.00
								CHANNELS 3 Zrotation Xrotation Yrotation
								End Site 
								{
									OFFSET	 0.00	 0.00	 0.00
								}
							}
						}
					}
				}
			}
		}
	}
	JOINT LeftUpLeg
	{
		OFFSET	 1.2719394002717	 0.00	 0.00
		CHANNELS 3 Zrotation Xrotation Yrotation
		JOINT LeftLowLeg
		{
			OFFSET	 0.00	-4.3429100912261	 0.00
			CHANNELS 3 Zrotation Xrotation Yrotation
			JOINT LeftFoot
			{
				OFFSET	 0.00	-4.48767017425826	 0.00
				CHANNELS 3 Zrotation Xrotation Yrotation
				JOINT LeftToeBase
                {
                    OFFSET	 0.00	0.00	 1.51507020887566
                    CHANNELS 3 Zrotation Xrotation Yrotation
                    End Site 
                    {
                        OFFSET	 0.00	0.00	 0.75000010571191
                    }
                }
			}
		}
	}
	JOINT RightUpLeg
	{
		OFFSET	 -1.2719393604653	 0.00	 0.00
		CHANNELS 3 Zrotation Xrotation Yrotation
		JOINT RightLowLeg
		{
			OFFSET	 0.00	-4.3429100912261	 0.00
			CHANNELS 3 Zrotation Xrotation Yrotation
			JOINT RightFoot
			{
				OFFSET	 0.00	-4.48767017425826	 0.00
				CHANNELS 3 Zrotation Xrotation Yrotation
				JOINT RightToeBase
                {
                    OFFSET	 0.00	0.00	 1.51507020887566
                    CHANNELS 3 Zrotation Xrotation Yrotation
                    End Site 
                    {
                        OFFSET	 0.00	0.00	 0.749999965609858
                    }
                }   
			}
		}
	}
}
MOTION 
Frames:	20 
Frame Time: 0.02 
 -2.3303199768066407 5.855900268554688 9.26958984375 53.0914 85.4287 307.693 2.35519 -14.3739 1.33047 -7.56362 19.0844 3.38873 19.6862 51.3049 351.386 -64.62 -80.5075 -775.583 -116.431 -3.86788 365.091 -46.0526 9.37345 5.35846 0.0 13.9015 0.0 3.95568 -14.5932 1.43079 0.0 0.0 0.0 0.0 0.0 0.0 121.3858 -6.10798 -360.257 47.759 4.08182 -365.783 0.0 18.741 0.0 3.2498 -6.35037 12.8992 0.0 0.0 0.0 0.0 0.0 0.0 -3.45427 -0.385968 -377.09 0.0 18.5828 0.0 -18.2388 -6.5032997 6.78807 0.0 -19.235199 0.0 4.43424 0.0178478 15.8828 0.0 21.656 0.0 28.4758 -15.563101 -8.60403 0.0 -15.967462 0.0 
  -2.3310200500488283 5.855469970703125 9.269600219726563 53.4642 85.4096 307.39 2.3025 -14.4583 1.3823 -7.59839 19.0691 3.47711 20.3931 51.9186 350.724 -63.4725 -80.4076 -774.488 -116.3958 -3.89016 365.126 -45.9126 9.74865 5.63769 0.0 13.8229 0.0 3.54593 -14.5845 1.54584 0.0 0.0 0.0 0.0 0.0 0.0 121.2753 -6.20133 -360.219 48.0952 4.10042 -364.364 0.0 18.9959 0.0 4.3906 -9.23383 11.4263 0.0 0.0 0.0 0.0 0.0 0.0 -3.47047 -0.381101 -377.098 0.0 18.5284 0.0 -18.2147 -6.4538994 6.76648 0.0 -19.24692 0.0 4.42766 -0.013685 15.8909 0.0 21.7276 0.0 28.4655 -15.6189995 -8.65637 0.0 -15.977922 0.0 
  -2.330829925537109 5.854609985351562 9.269769897460938 53.3279 85.3679 307.621 2.24103 -14.4952 1.4213 -7.62416 19.0827 3.56459 21.1498 52.4044 349.971 -62.4866 -80.3352 -773.392 -116.3392 -3.89565 364.916 -45.7507 9.90926 6.29411 0.0 13.957 0.0 3.30983 -14.6319 2.21804 0.0 0.0 0.0 0.0 0.0 0.0 121.1654 -6.33379 -359.984 48.3383 3.97273 -364.274 0.0 18.6666 0.0 4.83179 -9.65634 11.301 0.0 0.0 0.0 0.0 0.0 0.0 -3.49209 -0.34564 -377.151 0.0 18.5109 0.0 -18.2033 -6.4165 6.7503 0.0 -19.26269 0.0 4.41364 0.00828262 15.8469 0.0 21.7863 0.0 28.4142 -15.6486 -8.70812 0.0 -15.992357 0.0 
  -2.3304600524902344 5.854509887695312 9.269660034179687 52.7542 85.3131 308.281 2.16652 -14.4788 1.44881 -7.58588 19.1135 3.67346 21.7676 52.8136 349.343 -62.1008 -80.2757 -772.969 -116.293 -3.82309 364.693 -45.5237 9.972 7.07132 0.0 14.2797 0.0 3.16567 -14.5638 3.11175 0.0 0.0 0.0 0.0 0.0 0.0 121.0594 -6.4588 -359.796 48.5404 3.88833 -363.978 0.0 18.3642 0.0 5.25814 -10.0813 11.2444 0.0 0.0 0.0 0.0 0.0 0.0 -3.51376 -0.300543 -377.231 0.0 18.5475 0.0 -18.1703 -6.4032 6.76182 0.0 -19.27661 0.0 4.41167 0.0537501 15.7977 0.0 21.8586 0.0 28.4338 -15.6821995 -8.71967 0.0 -16.01294 0.0 
  -2.3305099487304686 5.85260986328125 9.26968994140625 52.0464 85.2571 309.022 2.10996 -14.4845 1.46926 -7.55893 19.2366 3.78088 22.0018 52.9761 349.086 -61.7612 -80.2137 -772.627 -116.2443 -3.84893 364.687 -45.1548 10.1713 8.13713 0.0 14.8982 0.0 3.10582 -14.455 3.33398 0.0 0.0 0.0 0.0 0.0 0.0 120.9972 -6.52285 -359.728 48.6704 3.81193 -363.847 0.0 18.223 0.0 5.3616 -10.1775 10.9362 0.0 0.0 0.0 0.0 0.0 0.0 -3.51835 -0.217247 -377.233 0.0 18.5572 0.0 -18.2034 -6.4034996 6.72592 0.0 -19.23784 0.0 4.42213 0.117768 15.7981 0.0 21.925 0.0 28.4016 -15.706301 -8.77399 0.0 -16.04702 0.0 
  -2.3291900634765623 5.852689819335938 9.269520263671875 51.399 85.207 309.799 2.0565 -14.4367 1.45252 -7.51734 19.3353 3.83787 21.9816 53.0883 349.11 -61.907 -80.1693 -772.888 -116.2014 -3.76383 364.729 -44.7167 10.2829 9.12834 0.0 15.6611 0.0 3.38735 -14.3188 4.22497 0.0 0.0 0.0 0.0 0.0 0.0 120.9758 -6.5633 -359.688 48.7129 3.75433 -363.69 0.0 18.1631 0.0 5.38737 -10.2348 10.7411 0.0 0.0 0.0 0.0 0.0 0.0 -3.52784 -0.176738 -377.282 0.0 18.5906 0.0 -18.1552 -6.3712997 6.68656 0.0 -19.28504 0.0 4.41929 0.183456 15.6773 0.0 21.9644 0.0 28.3897 -15.726801 -8.79325 0.0 -16.06614 0.0 
  -2.3276800537109374 5.855369873046875 9.269329833984376 51.2697 85.1646 310.189 1.94195 -14.351 1.35258 -7.43702 19.3719 3.8366 22.1176 53.0213 348.889 -62.1937 -80.1623 -773.128 -116.2155 -3.66868 364.805 -44.1333 10.3629 10.3323 0.0 16.5465 0.0 3.80252 -14.1014 4.4238 0.0 0.0 0.0 0.0 0.0 0.0 121.024704 -6.55932 -359.696 48.6339 3.68871 -363.614 0.0 18.1836 0.0 5.29214 -10.2346 10.8282 0.0 0.0 0.0 0.0 0.0 0.0 -3.54967 -0.198483 -377.372 0.0 18.6013 0.0 -18.1504 -6.2983 6.57349 0.0 -19.29266 0.0 4.3867 0.216049 15.405 0.0 21.9825 0.0 28.3653 -15.754 -8.79008 0.0 -16.04189 0.0 
  -2.3259599304199217 5.860859985351563 9.268109741210937 52.1017 85.2326 309.731 1.84328 -14.2983 1.18587 -7.35559 19.3051 3.71939 22.0424 52.9458 348.934 -62.306 -80.1544 -773.209 -116.2164 -3.63734 364.882 -43.484 10.4438 11.7253 0.0 17.479 0.0 4.33229 -13.8862 3.59952 0.0 0.0 0.0 0.0 0.0 0.0 121.098495 -6.54119 -359.75 48.531 3.6628 -363.521 0.0 18.2324 0.0 5.15917 -10.2105 10.9083 0.0 0.0 0.0 0.0 0.0 0.0 -3.59201 -0.47865 -377.786 0.0 18.8512 0.0 -18.1456 -6.3353004 6.56698 0.0 -19.28726 0.0 4.39452 0.123208 15.1127 0.0 21.9616 0.0 28.4338 -15.815201 -8.80938 0.0 -16.03598 0.0 
  -2.3235600280761717 5.860180053710938 9.268330078125 53.1122 85.287 308.797 1.81413 -14.3813 1.16867 -7.3376 19.3444 3.74009 21.9141 52.8354 349.024 -62.2688 -80.1289 -773.15 -116.149 -3.59588 364.861 -42.8865 10.3536 13.3217 0.0 18.5184 0.0 5.26965 -13.8149 3.5574 0.0 0.0 0.0 0.0 0.0 0.0 121.1353 -6.48364 -359.699 48.4682 3.51983 -363.467 0.0 18.2795 0.0 4.99232 -10.1543 11.0707 0.0 0.0 0.0 0.0 0.0 0.0 -3.58066 -0.538541 -377.658 0.0 18.7346 0.0 -18.0958 -6.2507 6.44551 0.0 -19.326271 0.0 4.35652 0.0306446 14.9652 0.0 21.9712 0.0 28.3822 -15.790899 -8.76808 0.0 -16.02808 0.0 
  -2.3204800415039064 5.858150024414062 9.26885986328125 53.9153 85.3655 308.011 1.80162 -14.424 1.17112 -7.26812 19.2984 3.76943 21.7177 52.8084 349.225 -62.5367 -80.1177 -773.424 -116.0663 -3.58039 364.769 -42.2808 10.1346 15.1672 0.0 19.6855 0.0 6.30169 -13.7576 3.57851 0.0 0.0 0.0 0.0 0.0 0.0 121.1196 -6.48981 -359.752 48.431 3.48832 -363.312 0.0 18.3235 0.0 4.74196 -10.0877 11.2061 0.0 0.0 0.0 0.0 0.0 0.0 -3.61539 -0.651094 -377.849 0.0 18.8107 0.0 -18.0384 -6.3092995 6.61829 0.0 -19.32531 0.0 4.33628 -0.0419858 14.8704 0.0 21.936 0.0 28.4368 -15.7404995 -8.66979 0.0 -16.03273 0.0 
  -2.3167999267578123 5.857340087890625 9.269920043945312 54.2294 85.458 307.725 1.78888 -14.394 1.12457 -7.11719 19.1895 3.75287 21.4515 52.8416 349.491 -63.3592 -80.0957 -774.305 -115.9657 -3.58304 364.643 -41.6277 9.728 17.2577 0.0 21.3012 0.0 7.3339 -13.9529 3.6204 0.0 0.0 0.0 0.0 0.0 0.0 121.0218 -6.51139 -359.948 48.4136 3.59908 -363.207 0.0 18.3389 0.0 4.43652 -9.97988 11.5706 0.0 0.0 0.0 0.0 0.0 0.0 -3.63223 -0.781207 -378.107 0.0 18.9654 0.0 -18.0571 -6.4076996 6.78366 0.0 -19.31213 0.0 4.32434 -0.0736315 14.6896 0.0 21.8393 0.0 28.4587 -15.6098 -8.53848 0.0 -16.03751 0.0 
  -2.313609924316406 5.855490112304688 9.271489868164062 54.4486 85.5318 307.438 1.76213 -14.3092 1.06754 -6.96638 18.9635 3.70453 21.0384 52.9502 349.912 -64.4373 -80.0258 -775.558 -115.730804 -3.69691 364.729 -40.7677 9.09122 19.7681 0.0 24.0229 0.0 8.25765 -14.3653 4.99692 0.0 0.0 0.0 0.0 0.0 0.0 120.8569 -6.59869 -360.295 48.4608 3.85002 -363.012 0.0 18.4252 0.0 4.27488 -10.1064 11.349 0.0 0.0 0.0 0.0 0.0 0.0 -3.63037 -0.848703 -378.176 0.0 19.0447 0.0 -18.0243 -6.4512005 6.89857 0.0 -19.29889 0.0 4.30079 -0.0883657 14.5557 0.0 21.7335 0.0 28.3761 -15.4426 -8.42746 0.0 -16.03451 0.0 
  -2.3100399780273437 5.8522100830078125 9.273599853515625 54.8793 85.6134 306.922 1.71155 -14.2653 0.911325 -6.80462 18.7549 3.56466 20.2382 53.1208 350.766 -65.5239 -79.8796 -776.9 -115.5662 -4.1716 365.171 -39.2464 8.40082 22.8201 0.0 28.4453 0.0 9.79936 -14.9882 8.03548 0.0 0.0 0.0 0.0 0.0 0.0 120.6034 -6.67139 -360.36 48.5984 3.98438 -362.952 0.0 18.4324 0.0 4.18086 -10.1158 11.0483 0.0 0.0 0.0 0.0 0.0 0.0 -3.62082 -0.918353 -378.123 0.0 19.0958 0.0 -18.026 -6.4582005 6.93163 0.0 -19.3099 0.0 4.26082 -0.095912 14.4097 0.0 21.5888 0.0 28.4086 -15.253901 -8.26471 0.0 -16.04175 0.0 
  -2.3093499755859375 5.8418798828125 9.276019897460937 56.766 85.769 304.788 1.60163 -14.4983 0.78785 -6.62134 18.5788 3.5349 19.7807 53.3967 351.235 -66.6266 -79.7433 -778.068 -115.2994 -4.95622 365.766 -37.3026 7.5474 25.7787 0.0 34.2756 0.0 11.7082 -14.9156 12.2109 0.0 0.0 0.0 0.0 0.0 0.0 120.3816 -6.75649 -360.33 48.6815 3.96581 -362.888 0.0 18.5681 0.0 4.31448 -10.1037 10.8148 0.0 0.0 0.0 0.0 0.0 0.0 -3.57577 -1.00974 -377.904 0.0 19.0427 0.0 -17.976 -6.463499 6.98585 0.0 -19.32787 0.0 4.2408 -0.196539 14.4244 0.0 21.4358 0.0 28.4959 -15.0776005 -8.06565 0.0 -15.977555 0.0 
  -2.3078900146484376 5.830869750976563 9.27906005859375 56.3783 85.8681 304.971 1.52986 -14.5833 0.651112 -6.48033 18.372 3.43401 19.4532 53.877 351.629 -68.4531 -79.6567 -779.996 -114.8013 -5.98552 366.116 -35.3326 6.3972 28.2192 0.0 41.1416 0.0 13.9864 -14.5405 16.2114 0.0 0.0 0.0 0.0 0.0 0.0 120.248505 -6.73702 -360.212 48.7425 3.72983 -362.223 0.0 18.8869 0.0 4.48736 -10.1526 10.3894 0.0 0.0 0.0 0.0 0.0 0.0 -3.4934 -0.947488 -377.782 0.0 19.0391 0.0 -17.9404 -6.5133 7.05945 0.0 -19.3328 0.0 4.22212 -0.0792378 14.1553 0.0 21.1574 0.0 28.5243 -14.7278 -7.77145 0.0 -15.910669 0.0 
  -2.307209930419922 5.814749755859375 9.282459716796875 56.5273 86.053 304.53 1.47867 -14.7998 0.554929 -6.27701 18.0305 3.3656 19.0982 54.6688 352.053 -70.3306 -79.4452 -782.051 -114.0366 -7.28711 366.286 -33.3636 5.02401 30.5472 0.0 48.6892 0.0 15.6659 -13.4516 24.3813 0.0 0.0 0.0 0.0 0.0 0.0 120.252304 -6.65487 -360.237 48.6417 3.23799 -360.956 0.0 19.8559 0.0 4.39705 -10.7852 8.66932 0.0 0.0 0.0 0.0 0.0 0.0 -3.36998 -0.901604 -377.677 0.0 19.0033 0.0 -17.9453 -6.6310005 7.20992 0.0 -19.33746 0.0 4.25754 0.0301278 13.9872 0.0 20.7713 0.0 28.6128 -14.339199 -7.55042 0.0 -15.858986 0.0 
  -2.3081199645996096 5.795380249023437 9.287160034179687 55.8307 86.2547 304.65 1.41446 -15.0519 0.60261 -5.92579 17.6141 3.51693 19.0492 55.7577 352.09 -72.3039 -79.1272 -784.11 -113.1091 -8.64459 366.168 -31.3364 3.45122 33.0664 0.0 56.5881 0.0 17.4079 -12.1183 30.0439 0.0 0.0 0.0 0.0 0.0 0.0 120.4344 -6.61152 -360.608 48.3108 2.80504 -358.457 0.0 21.25 0.0 4.38883 -11.0735 6.43677 0.0 0.0 0.0 0.0 0.0 0.0 -3.17277 -0.725515 -377.262 0.0 18.8749 0.0 -18.0214 -6.7523994 7.32148 0.0 -19.3822 0.0 4.30102 0.198109 13.9425 0.0 20.3206 0.0 28.6232 -13.777599 -7.19166 0.0 -15.872791 0.0 
  -2.3067799377441407 5.778499755859375 9.291370239257812 55.7673 86.5562 304.278 1.29933 -15.3608 0.597586 -5.37186 17.1128 3.70091 19.1317 56.9177 351.884 -73.8272 -78.6843 -785.641 -112.1538 -9.91113 365.817 -29.194 1.84092 35.7688 0.0 64.407 0.0 18.8361 -10.3396 34.826 0.0 0.0 0.0 0.0 0.0 0.0 120.6678 -6.61669 -361.002 47.962 2.07963 -355.011 0.0 23.6029 0.0 4.12889 -11.5377 3.91425 0.0 0.0 0.0 0.0 0.0 0.0 -2.97526 -0.742373 -377.112 0.0 18.9199 0.0 -17.9428 -6.9526005 7.57961 0.0 -19.36824 0.0 4.36972 0.419925 13.8673 0.0 19.5718 0.0 28.743 -13.223301 -6.88961 0.0 -15.867103 0.0 
  -2.30656005859375 5.75802001953125 9.296199951171875 56.6255 86.8989 302.763 1.05364 -15.8341 0.642422 -4.51568 16.6062 4.14998 19.4547 58.1892 351.271 -75.2361 -78.0799 -786.97 -111.2143 -11.0112 365.49 -26.9577 0.316789 38.401 0.0 71.8479 0.0 18.5363 -9.32171 39.5561 0.0 0.0 0.0 0.0 0.0 0.0 120.900696 -6.85313 -361.532 47.5758 1.2415 -351.481 0.0 27.1104 0.0 2.93381 -11.3038 2.15041 0.0 0.0 0.0 0.0 0.0 0.0 -2.73898 -0.706701 -376.727 0.0 18.8191 0.0 -17.9602 -7.1583996 7.78778 0.0 -19.31571 0.0 4.45923 0.478367 14.0308 0.0 19.0313 0.0 28.8211 -12.6166 -6.56901 0.0 -15.773416 0.0 
  -2.3069700622558593 5.74676025390625 9.299569702148437 61.3953 87.368 297.133 0.703402 -16.2507 0.738475 -3.37843 15.7287 4.78076 20.0682 59.6578 350.358 -76.466 -77.4454 -788.044 -110.3638 -11.926 364.876 -24.678 -1.14227 41.3274 0.0 78.6179 0.0 18.6643 -8.76254 40.0753 0.0 0.0 0.0 0.0 0.0 0.0 121.1406 -7.36429 -362.282 47.0877 0.470479 -348.334 0.0 31.7593 0.0 1.00952 -10.3419 0.688094 0.0 0.0 0.0 0.0 0.0 0.0 -2.46289 -0.946363 -376.092 0.0 18.7799 0.0 -17.9285 -7.382 7.93558 0.0 -19.28336 0.0 4.6575 0.000379929 14.652 0.0 19.0319 0.0 28.9117 -12.094101 -6.30577 0.0 -15.784546 0.0 
